<svg width="256" height="256" viewBox="0 0 256 256" fill="none" xmlns="http://www.w3.org/2000/svg">
<path d="M86.58 122.44C80.66 122.44 75.34 121.2 70.62 118.72C65.9 116.24 62.14 112.76 59.34 108.28C56.62 103.72 55.26 98.4 55.26 92.32C55.26 86.4 56.18 81.04 58.02 76.24C59.86 71.44 62.5 67.28 65.94 63.76C69.38 60.24 73.46 57.56 78.18 55.72C82.9 53.8 88.14 52.84 93.9 52.84C99.5 52.84 104.54 53.92 109.02 56.08C113.58 58.16 117.18 61.16 119.82 65.08C122.46 69 123.62 73.68 123.3 79.12H104.58C104.34 75.52 103.14 72.8 100.98 70.96C98.82 69.04 96.18 68.08 93.06 68.08C89.86 68.08 87.06 68.8 84.66 70.24C82.34 71.68 80.42 73.56 78.9 75.88C77.38 78.2 76.22 80.72 75.42 83.44C74.7 86.08 74.34 88.68 74.34 91.24C74.34 96.84 75.66 100.96 78.3 103.6C80.94 106.16 83.98 107.44 87.42 107.44C91.18 107.44 94.42 106.48 97.14 104.56C99.86 102.56 101.62 99.96 102.42 96.76H121.14C119.94 101.96 117.78 106.48 114.66 110.32C111.54 114.16 107.62 117.16 102.9 119.32C98.18 121.4 92.74 122.44 86.58 122.44Z" fill="#FF3399"/>
<path d="M135.827 121V37.24H161.627C167.707 37.24 173.187 38.24 178.067 40.24C182.947 42.16 187.107 44.96 190.547 48.64C193.987 52.24 196.627 56.6 198.467 61.72C200.307 66.84 201.227 72.56 201.227 78.88C201.227 85.28 200.307 91.08 198.467 96.28C196.627 101.4 193.987 105.84 190.547 109.6C187.107 113.28 182.947 116.12 178.067 118.12C173.187 120.04 167.707 121 161.627 121H135.827ZM148.547 110.2H161.627C167.067 110.2 171.747 108.92 175.667 106.36C179.587 103.72 182.587 100.04 184.667 95.32C186.827 90.6 187.907 85.12 187.907 78.88C187.907 72.56 186.827 67.12 184.667 62.56C182.587 57.92 179.587 54.36 175.667 51.88C171.747 49.32 167.067 48.04 161.627 48.04H148.547V110.2ZM82.14 220V136.24H94.86V220H82.14ZM61.14 136.24H115.74V147.04H61.14V136.24ZM61.14 209.2H115.74V220H61.14V209.2ZM136.787 220V136.24H197.507V147.04H149.507V171.16H182.747V181.96H149.507V220H136.787Z" fill="#C2387D"/>
</svg>
